<svg xmlns="http://www.w3.org/2000/svg" width="183" height="237" viewBox="0 0 183 237" fill="none">
<path d="M56 42V35.3322C56 30.7289 59.5779 27 63.9946 27H65.0053C69.4221 27 73 30.7289 73 35.3322V42" fill="#ACACAC"/>
<path d="M56 42V35.3322C56 30.7289 59.5779 27 63.9946 27H65.0053C69.4221 27 73 30.7289 73 35.3322V42" stroke="black" stroke-width="0.64" stroke-miterlimit="10"/>
<path d="M80.7293 56.0162L49.5604 56.2828C48.2205 56.2942 47.1212 55.2136 47.1097 53.8736V53.8736C47.0504 46.9372 52.6254 41.266 59.5618 41.2067L70.4715 41.1134C77.4079 41.0541 83.0791 46.6291 83.1384 53.5655V53.5655C83.1499 54.9055 82.0692 56.0047 80.7293 56.0162Z" fill="#E9DADA" stroke="black" stroke-width="0.64" stroke-miterlimit="10"/>
<path d="M99.0601 105.63C99.0601 124.88 83.2401 140.44 63.8801 140.01C46.6101 139.62 32.0201 125.9 30.4301 108.7C29.5101 98.72 33.1601 89.83 38.9101 82.86C47.0701 72.97 46.0901 63.27 46.6301 58.63C46.8001 57.17 47.5601 55.9 49.0301 55.86C52.5201 55.77 58.6601 55.63 64.6801 55.63C71.0301 55.63 77.4901 55.74 81.0001 55.81C82.3401 55.84 83.0401 57.01 83.1601 58.34C83.7901 65.15 82.9501 74.16 90.3401 82.74C95.6501 88.91 99.0601 96.84 99.0601 105.62V105.63Z" fill="#FBCA60" stroke="black" stroke-width="0.84" stroke-miterlimit="10"/>
<path d="M64.6799 56.01V92.15" stroke="black" stroke-width="0.64" stroke-miterlimit="10"/>
<path d="M64.6799 100.7C67.0437 100.7 68.9599 98.7838 68.9599 96.42C68.9599 94.0562 67.0437 92.14 64.6799 92.14C62.3161 92.14 60.3999 94.0562 60.3999 96.42C60.3999 98.7838 62.3161 100.7 64.6799 100.7Z" stroke="black" stroke-width="0.64" stroke-miterlimit="10"/>
<path d="M64.73 27.37V0" stroke="black" stroke-width="0.64" stroke-miterlimit="10"/>
<path d="M20.46 108.92H0" stroke="#FBCA60" stroke-width="0.84" stroke-miterlimit="10"/>
<path d="M64.6699 145.82V166.28" stroke="#FBCA60" stroke-width="0.84" stroke-miterlimit="10"/>
<path d="M94.6101 138.01L107.83 153.63" stroke="#FBCA60" stroke-width="0.84" stroke-miterlimit="10"/>
<path d="M18.6399 152.43L34.2599 139.21" stroke="#FBCA60" stroke-width="0.84" stroke-miterlimit="10"/>
<path d="M120.98 236.38C155.023 236.38 182.62 233.559 182.62 230.08C182.62 226.601 155.023 223.78 120.98 223.78C86.9372 223.78 59.3401 226.601 59.3401 230.08C59.3401 233.559 86.9372 236.38 120.98 236.38Z" fill="#F0EFEE"/>
<path d="M101.05 112.17H125.79V119.42H101.05C99.0502 119.42 97.4302 117.8 97.4302 115.8C97.4302 113.8 99.0502 112.18 101.05 112.18V112.17Z" fill="#FFB599"/>
<path d="M112.63 185.3L127.28 184.18L120.35 222.49L114.42 227.18L108.95 222.49L112.63 185.3Z" fill="#FFB599"/>
<path d="M140.03 184.18L156.04 189.94L152.48 222.49L146.55 227.18L143.23 225.61L140.03 184.18Z" fill="#FFB599"/>
<path d="M142.53 211.79H152.7L153.91 222.49L147.02 225.61L142.49 222.49L142.53 211.79Z" fill="#76DED2"/>
<path d="M110.71 211.95H122.1L120.35 222.49L115.2 225.78L108.62 224.03L110.71 211.95Z" fill="#76DED2"/>
<path d="M148.23 221.53L138.29 225.51C138.29 225.51 135.25 226.44 134.1 224.61C134.1 224.61 128.86 225.51 128.41 227.92C128.41 227.92 127.9 228.73 127.87 229.43L156.76 228.65C156.76 228.65 157.57 227.41 156.91 225.97C156.25 224.53 152.81 215.85 152.81 215.85C152.81 215.85 147.24 216.54 148.23 221.54V221.53Z" fill="#00B7FF"/>
<path d="M146.09 223.19C146.09 223.19 146.7 224.93 148.39 224.41C150.08 223.89 154.76 220.74 154.76 220.74L155.2 221.85L151.64 224.68C151.64 224.68 148.53 227.7 146.32 226.66C144.11 225.61 146.09 223.2 146.09 223.2V223.19Z" fill="white"/>
<path d="M155.78 223.26C155.78 223.26 153.1 225.3 153.13 228.74L156.75 228.64C156.75 228.64 157.42 227.51 157.16 226.74C156.9 225.97 155.77 223.26 155.77 223.26H155.78Z" fill="#752E1C"/>
<path d="M128.4 227.91C128.4 227.91 130.74 228.15 133.19 227.72C135.64 227.29 139.64 226.64 139.64 226.64L138.96 225.23L140.7 224.53L141.67 226.44C141.67 226.44 146.15 226.31 147.34 228.89L127.85 229.42L128.39 227.91H128.4Z" fill="#76DED2"/>
<path d="M134.1 224.6C134.1 224.6 142.47 222.37 143.72 221.32L148.23 221.52L137 226.01C137 226.01 135.62 226.29 134.1 224.59V224.6Z" fill="#752E1C"/>
<path d="M143.74 221.26C143.74 221.26 142.17 219.73 142.05 218.48C142.05 218.48 144.93 217 146.18 218.19C147.43 219.38 148.01 221.58 148.01 221.58L143.74 221.26Z" fill="#00B7FF"/>
<path d="M142.21 222.07C142.21 222.07 143.92 222.82 144.24 224.21" stroke="white" stroke-width="0.61" stroke-linecap="round" stroke-linejoin="round"/>
<path d="M140.03 222.84C140.03 222.84 141.16 223.51 142.06 224.98" stroke="white" stroke-width="0.61" stroke-linecap="round" stroke-linejoin="round"/>
<path d="M136.99 223.78C136.99 223.78 137.56 224.52 138.45 225.99" stroke="white" stroke-width="0.61" stroke-linecap="round" stroke-linejoin="round"/>
<path d="M156.75 228.64C156.75 228.64 156.6 229.44 157.22 232.46H127.85V229.42L156.74 228.64H156.75Z" fill="#752E1C"/>
<path d="M114.63 221.53L104.69 225.51C104.69 225.51 101.65 226.44 100.5 224.61C100.5 224.61 95.26 225.51 94.81 227.92C94.81 227.92 94.3 228.73 94.27 229.43L123.16 228.65C123.16 228.65 123.97 227.41 123.31 225.97C122.65 224.53 119.21 215.85 119.21 215.85C119.21 215.85 113.64 216.54 114.63 221.54V221.53Z" fill="#00B7FF"/>
<path d="M116.81 222.82C116.81 222.82 117.13 223.74 118.02 223.46C118.91 223.18 121.38 221.52 121.38 221.52L121.61 222.1L119.74 223.59C119.74 223.59 118.1 225.18 116.94 224.63C115.78 224.08 116.82 222.81 116.82 222.81L116.81 222.82Z" fill="white"/>
<path d="M122.18 223.26C122.18 223.26 119.5 225.3 119.53 228.74L123.15 228.64C123.15 228.64 123.82 227.51 123.56 226.74C123.3 225.97 122.17 223.26 122.17 223.26H122.18Z" fill="#752E1C"/>
<path d="M94.81 227.91C94.81 227.91 97.15 228.15 99.6 227.72C102.05 227.29 106.05 226.64 106.05 226.64L105.37 225.23L107.11 224.53L108.08 226.44C108.08 226.44 112.56 226.31 113.75 228.89L94.26 229.42L94.8 227.91H94.81Z" fill="#76DED2"/>
<path d="M100.5 224.6C100.5 224.6 108.87 222.37 110.12 221.32L114.63 221.52L104.69 225.5C104.69 225.5 102.02 226.3 100.5 224.6Z" fill="#752E1C"/>
<path d="M110.15 221.26C110.15 221.26 108.58 219.73 108.46 218.48C108.46 218.48 111.34 217 112.59 218.19C113.84 219.38 114.42 221.58 114.42 221.58L110.15 221.26Z" fill="#00B7FF"/>
<path d="M108.62 222.07C108.62 222.07 110.33 222.82 110.65 224.21" stroke="white" stroke-width="0.61" stroke-linecap="round" stroke-linejoin="round"/>
<path d="M106.43 222.84C106.43 222.84 107.56 223.51 108.46 224.98" stroke="white" stroke-width="0.61" stroke-linecap="round" stroke-linejoin="round"/>
<path d="M123.16 228.64C123.16 228.64 123.01 229.44 123.63 232.46H94.26V229.42L123.15 228.64H123.16Z" fill="#752E1C"/>
<path d="M163.52 193.04C163.52 193.04 161.05 166.28 150.49 130.26L145.95 127.83L121.53 126.57L111.87 157.67L101.29 190.25L163.52 193.04Z" fill="#CE4949"/>
<path d="M136.71 64.51C136.71 64.51 139.84 64.1 143.43 66.35C147.02 68.6 147.29 74.26 147.29 74.26C147.29 74.26 153.05 78.77 153.36 83.72C153.67 88.67 149.17 90.48 149.17 90.48C142.3 89.43 135.58 93.44 135.42 86.49L136.72 64.5L136.71 64.51Z" fill="#6A2A1A"/>
<path d="M128.05 66.14C128.05 66.14 124.84 72.14 125.27 75.01C125.27 75.01 126.23 77.29 128.24 77.42C131.45 77.63 132.05 81.67 131.27 83.75C130.49 85.83 125.79 87.48 125.79 87.48L138.83 99.64L140.63 87.48L136.12 69.03C136.12 69.03 134.8 64.4 128.05 66.15V66.14Z" fill="#FFB599"/>
<path d="M124.75 100.78L124.16 119.46L120.99 128.74L150.5 130.27L142.77 99.88C142.77 99.88 148.94 91.92 139.59 88.2L135.89 92.52C134.91 93.66 133.11 93.57 132.25 92.34L128.2 86.54C128.2 86.54 119.06 86.54 117.44 98.65" fill="#00B7FF"/>
<path d="M135.56 87.12L145.49 89.12C150.72 90.17 154.9 94.09 156.29 99.25C158.1 105.97 159.4 115.02 155.34 120.16C153.52 122.47 152.07 123.09 152.07 123.09L147.56 114.68L135.56 87.13V87.12Z" fill="#00B7FF"/>
<path d="M148.72 116.84H128.14C128.14 116.84 129.15 118.57 131.65 118.57C134.15 118.57 151.04 121.15 151.04 121.15L148.73 116.84H148.72Z" fill="#FFB599"/>
<path d="M103.4 223.78C103.4 223.78 103.97 224.52 104.86 225.99" stroke="white" stroke-width="0.61" stroke-linecap="round" stroke-linejoin="round"/>
<path d="M138.3 72.32L137.23 73.74C137.23 73.74 134.95 70.57 134.95 68.81C134.95 68.79 134.95 68.77 134.95 68.76C134.95 67.64 133.93 66.79 132.83 67.01C132.17 67.14 131.44 67.23 130.77 67.21C128.88 67.15 127.69 66.15 127.82 65.26C127.95 64.37 129.06 61.63 134.95 62.53C140.84 63.42 140.95 70.3 138.3 72.33V72.32Z" fill="#6A2A1A"/>
<path d="M143.83 82.66C147.249 82.66 150.02 79.8886 150.02 76.47C150.02 73.0513 147.249 70.28 143.83 70.28C140.411 70.28 137.64 73.0513 137.64 76.47C137.64 79.8886 140.411 82.66 143.83 82.66Z" fill="#6A2A1A"/>
<path d="M139.59 92.41C143.009 92.41 145.78 89.6386 145.78 86.22C145.78 82.8013 143.009 80.03 139.59 80.03C136.171 80.03 133.4 82.8013 133.4 86.22C133.4 89.6386 136.171 92.41 139.59 92.41Z" fill="#6A2A1A"/>
<path d="M143.93 96.23C147.349 96.23 150.12 93.4587 150.12 90.04C150.12 86.6214 147.349 83.85 143.93 83.85C140.511 83.85 137.74 86.6214 137.74 90.04C137.74 93.4587 140.511 96.23 143.93 96.23Z" fill="#6A2A1A"/>
<path d="M137.05 74.65C138.022 74.65 138.81 73.862 138.81 72.89C138.81 71.918 138.022 71.13 137.05 71.13C136.078 71.13 135.29 71.918 135.29 72.89C135.29 73.862 136.078 74.65 137.05 74.65Z" fill="#FFB599"/>
<path d="M124.16 120.67L115.36 120.63L114.87 111.48C116.28 111.48 117.43 110.34 117.43 108.92V97.67L124.75 100.79L124.16 120.68V120.67Z" fill="#00B7FF"/>
<path d="M99.4701 111.21C98.6901 110.34 98.1901 109.27 98.0201 108.02C98.0001 107.88 97.9901 107.73 97.9101 107.61C97.7401 107.32 97.2901 107.3 97.0301 107.51C96.7701 107.72 96.6601 108.06 96.6301 108.4C96.6001 108.74 96.5801 111.56 96.5701 111.56C95.7801 111.73 94.9901 111.91 94.2001 112.08C93.7501 112.18 93.2801 112.29 92.8901 112.53C92.5001 112.77 92.1801 113.21 92.2001 113.67C92.2201 114.13 92.6601 114.58 93.1101 114.49C92.7501 114.64 92.5101 115.03 92.5501 115.42C92.5901 115.81 92.8901 116.15 93.2701 116.23C93.1101 116.87 93.4201 117.56 93.9101 118C94.4001 118.44 95.0401 118.69 95.6701 118.86C96.7001 119.15 97.7701 119.3 98.8401 119.3C99.5601 119.3 100.3 119.23 100.92 118.87C101.71 118.42 102.2 117.56 102.4 116.67C102.6 115.78 102.57 114.86 102.52 113.95C102.52 113.74 102.5 113.53 102.39 113.35C102.13 112.94 101.3 112.65 100.9 112.4C100.35 112.05 99.8601 111.65 99.4501 111.19L99.4701 111.21Z" fill="#FFB599"/>
<path d="M126.89 74.21C126.89 74.21 129.16 74.82 129.85 73.73" stroke="black" stroke-width="0.3" stroke-miterlimit="10"/>
<path d="M125.79 116.57H133.4C133.4 118.82 131.57 120.65 129.32 120.65H125.79V116.57Z" fill="#FFB599"/>
<path d="M125.27 97.19L124.16 119.46C124.16 119.46 123.47 102.11 125.27 97.19Z" fill="#266FDC"/>
<path d="M134.77 97.19H158.92L156.28 115.65H132.41L134.77 97.19Z" fill="#E5E4E3"/>
<path d="M156.2 115.65H125.27V116.84H156.2V115.65Z" fill="#D6D6D6"/>
<path d="M145.66 108.64C146.886 108.64 147.88 107.646 147.88 106.42C147.88 105.194 146.886 104.2 145.66 104.2C144.434 104.2 143.44 105.194 143.44 106.42C143.44 107.646 144.434 108.64 145.66 108.64Z" fill="#F4F4F4"/>
<circle cx="127.5" cy="70.5" r="0.5" fill="#171616"/>
</svg>